<svg width="142" height="40" viewBox="0 0 142 40" fill="none" xmlns="http://www.w3.org/2000/svg">
<path fill-rule="evenodd" clip-rule="evenodd" d="M0.656141 0.265002C0.199346 0.449704 0.0656613 4.33884 0.0656613 17.4697V34.4363H3.07853C4.92602 34.4363 6.27042 34.2081 6.5548 33.8458C6.80988 33.5213 7.52649 31.9213 8.14768 30.2916L9.27715 27.3274L15.8357 27.4573L22.3948 27.5867L23.7151 30.8934C24.6882 33.3304 25.2933 34.2398 26.0156 34.3513C26.5546 34.4344 27.1082 34.21 27.2452 33.8524C27.4644 33.2808 24.8394 26.4615 18.5585 11.2895C15.8008 4.62794 15.6562 4.70588 11.4482 15.1101C4.99451 31.0663 4.4201 32.3063 3.40967 32.4617C2.4323 32.612 2.42758 32.5383 2.42758 17.4636V2.3142H70.9232H139.419V17.4305V32.5468H138.098C137.028 32.5468 136.02 31.7021 132.784 28.0945L128.79 23.6428L123.948 23.6069L119.106 23.5715V16.4857V9.39996H123.641C130.008 9.39996 132.44 10.6697 133.302 14.4436C133.86 16.8891 133.381 19.5085 132.005 21.5369C130.741 23.3995 130.856 24.5162 132.311 24.5162C132.902 24.5162 133.746 23.7878 134.532 22.6012C135.567 21.0376 135.832 20.0191 135.979 17.0507C136.133 13.9103 136.009 13.1597 135.065 11.5399C133.829 9.41885 131.601 7.74567 129.082 7.0456C127.051 6.48157 117.711 6.41591 116.855 6.95962C116.391 7.25439 116.285 10.34 116.383 20.7698L116.508 34.2001H117.689C118.848 34.2001 118.873 34.1245 119.007 30.0667L119.143 25.9334H123.107H127.071L131.231 30.4399L135.392 34.9469L138.468 34.8095L141.545 34.6725L141.669 17.6983C141.766 4.43284 141.663 0.641492 141.196 0.345307C140.561 -0.0581088 1.65429 -0.137469 0.656141 0.265002ZM29.4035 7.21377C29.0233 7.67245 28.9028 11.7094 28.9916 21.031L29.1173 34.2001H30.2982H31.4792L31.7154 23.7061L31.9516 13.2116L35.7642 19.4546C38.4228 23.8077 39.8711 25.7407 40.5504 25.8408C41.3454 25.958 42.2514 24.8039 45.4769 19.5657L49.4298 13.1464L49.666 23.6735L49.9022 34.2001H51.0831H52.2641L52.3893 20.919C52.497 9.52561 52.4129 7.55388 51.7988 7.04418C50.7345 6.16035 50.2205 6.75981 45.5954 14.2811C43.3318 17.9619 41.2434 21.237 40.9547 21.5591C40.5551 22.0055 39.4837 20.5596 36.4614 15.4937C31.0115 6.3597 30.5561 5.82543 29.4035 7.21377ZM70.5368 7.17031C70.1103 7.68426 69.9955 11.238 70.089 21.031L70.2147 34.2001L77.3004 34.3239C85.3295 34.4642 86.8256 34.0532 88.7463 31.1778C90.6297 28.3581 89.9806 23.1898 87.4463 20.8288L86.3867 19.8415L87.63 18.3634C88.6542 17.1466 88.8733 16.4125 88.8719 14.2055C88.87 11.0212 87.7675 8.90065 85.4698 7.66206C83.3167 6.50141 71.4174 6.10933 70.5368 7.17031ZM102.284 6.92703C101.633 7.3569 91.2357 32.4683 91.2357 33.6096C91.2357 34.1633 91.6037 34.4363 92.3506 34.4363C93.2878 34.4363 93.6954 33.8893 94.9043 31.0115L96.3422 27.5867L102.887 27.4564L109.431 27.326L110.788 30.8811C111.95 33.9233 112.307 34.4363 113.264 34.4363C114.071 34.4363 114.383 34.1708 114.383 33.4821C114.383 32.6724 105.225 9.82322 103.926 7.39233C103.446 6.49338 103.092 6.39324 102.284 6.92703ZM84.1939 10.1312C86.8119 11.4851 87.272 14.8536 85.1311 16.9945C83.764 18.3616 83.696 18.3753 78.2816 18.3753H72.8128V13.8876V9.39996H77.7964C81.3705 9.39996 83.1797 9.60686 84.1939 10.1312ZM20.8505 24.0798C20.8505 24.3202 18.5359 24.5162 15.6935 24.5162H10.5365L12.6764 19.2019C13.8531 16.2793 15.0223 13.3562 15.275 12.7066C15.6907 11.6381 15.9774 12.102 18.2926 17.5845C19.6993 20.9167 20.8505 23.8393 20.8505 24.0798ZM105.716 18.38L108.151 24.5162H103C100.167 24.5162 97.8491 24.3311 97.8491 24.1043C97.8491 23.374 102.665 12.2343 102.978 12.239C103.145 12.2413 104.377 15.0048 105.716 18.38ZM84.3644 21.9394C86.288 22.852 87.2205 24.5493 87.2205 27.1361C87.2205 30.9345 84.9705 32.0673 77.4185 32.0715L72.8128 32.0744V26.642V21.2096H77.8196C81.3563 21.2096 83.278 21.424 84.3644 21.9394ZM55.0266 22.879C54.4961 24.2626 55.5835 24.5517 60.8076 24.4152C65.6032 24.2895 65.9632 24.2139 65.9632 23.3353C65.9632 22.4543 65.6037 22.3815 60.6399 22.2568C56.1154 22.1435 55.2732 22.2365 55.0266 22.879ZM0.150691 38.8059L0.301853 39.8687L69.9785 39.9793C108.301 40.0402 140.133 39.9622 140.718 39.8064C141.343 39.6391 141.781 39.1564 141.781 38.6325C141.781 37.7652 140.003 37.743 70.8902 37.743H0L0.150691 38.8059Z" fill="white"/>
</svg>
